<svg width="215" height="48" viewBox="0 0 215 48" fill="none" xmlns="http://www.w3.org/2000/svg">
<path d="M13.3975 25.2471C13.3975 13.1635 27.1401 14.0087 27.6097 22.2731C27.7662 24.9653 23.6966 25.1844 23.5401 22.4923C23.2584 19.3618 17.4357 18.4853 17.4357 25.2471C17.4357 29.661 26.0445 43.9358 33.3071 43.9358C39.8811 43.9358 47.0811 25.2157 47.0811 17.2644C47.0811 10.7218 43.2307 4.08521 34.6845 4.08521C26.3575 4.08521 23.321 14.8227 17.4984 14.8227C14.8062 14.8227 14.8062 10.7531 17.4984 10.7531C20.1905 10.7531 24.8549 0.015625 34.6845 0.015625C46.8307 0.015625 57.5368 11.4731 46.2359 35.5149C31.9297 66.0368 13.3975 31.821 13.3975 25.2471Z" fill="#1E84B5"/>
<path d="M0 17.2647C0 3.11506 13.1792 -2.8641 22.1323 1.2994C24.574 2.42636 22.8523 6.1203 20.4105 4.99333C13.9931 1.9881 4.03828 6.1829 4.03828 17.2647C4.03828 25.216 11.2383 43.9361 17.8123 43.9361C25.0749 43.9361 33.6837 29.6926 33.6837 25.2473C33.6837 18.4856 27.861 19.3308 27.5793 22.5239C27.5167 23.6508 26.5462 24.496 25.4193 24.4334C21.6001 24.2143 23.6662 16.1064 30.3967 16.1064C36.3445 16.1064 42.6054 24.3082 31.5549 38.8648C11.7079 65.098 0 27.1882 0 17.2647Z" fill="#1E84B5"/>
<path d="M64.9385 38.5996V19.4836H72.6875C74.1635 19.4836 75.4505 19.6996 76.5485 20.1316C77.6645 20.5636 78.5285 21.2656 79.1405 22.2376C79.7705 23.2096 80.0855 24.5236 80.0855 26.1796C80.0855 27.7096 79.7525 28.9876 79.0865 30.0136C78.4205 31.0396 77.5115 31.8046 76.3595 32.3086C75.2075 32.7946 73.8935 33.0376 72.4175 33.0376H69.3125V38.5996H64.9385ZM69.3125 29.1496H72.4175C73.4435 29.1496 74.2535 28.8976 74.8475 28.3936C75.4595 27.8896 75.7655 27.1516 75.7655 26.1796C75.7655 25.3156 75.5045 24.6586 74.9825 24.2086C74.4785 23.7586 73.6415 23.5336 72.4715 23.5336H69.3125V29.1496ZM82.2491 38.5996V24.3706H86.0291L86.3261 25.8826C86.6861 25.3606 87.0821 24.9736 87.5141 24.7216C87.9641 24.4696 88.4141 24.3076 88.8641 24.2356C89.3321 24.1456 89.7821 24.1006 90.2141 24.1006C90.4841 24.1006 90.7271 24.1096 90.9431 24.1276C91.1771 24.1276 91.3301 24.1366 91.4021 24.1546V28.2586H90.5111C89.7551 28.2586 89.0711 28.3756 88.4591 28.6096C87.8651 28.8436 87.3971 29.2306 87.0551 29.7706C86.7131 30.3106 86.5421 31.0666 86.5421 32.0386V38.5996H82.2491ZM93.0333 38.5996V24.3706H97.3263V38.5996H93.0333ZM95.1933 23.1826C94.4013 23.1826 93.7623 22.9486 93.2763 22.4806C92.8083 22.0126 92.5743 21.4006 92.5743 20.6446C92.5743 19.8706 92.8263 19.2406 93.3303 18.7546C93.8343 18.2686 94.4643 18.0256 95.2202 18.0256C95.9403 18.0256 96.5523 18.2596 97.0563 18.7276C97.5603 19.1956 97.8123 19.8256 97.8123 20.6176C97.8123 21.3916 97.5693 22.0126 97.0833 22.4806C96.5973 22.9486 95.9673 23.1826 95.1933 23.1826ZM100.073 38.5996V24.3706H103.88L104.258 25.9096C104.654 25.3876 105.077 25.0006 105.527 24.7486C105.995 24.4786 106.445 24.3076 106.877 24.2356C107.327 24.1636 107.705 24.1276 108.011 24.1276C108.803 24.1276 109.532 24.2716 110.198 24.5596C110.864 24.8476 111.404 25.3696 111.818 26.1256C112.214 25.5856 112.646 25.1806 113.114 24.9106C113.582 24.6226 114.059 24.4246 114.545 24.3166C115.031 24.1906 115.517 24.1276 116.003 24.1276C117.137 24.1276 118.046 24.3616 118.73 24.8296C119.414 25.2796 119.918 25.9276 120.242 26.7736C120.566 27.6016 120.728 28.5646 120.728 29.6626V38.5996H116.462V30.6076C116.462 30.3556 116.444 30.0766 116.408 29.7706C116.372 29.4646 116.291 29.1856 116.165 28.9336C116.057 28.6636 115.886 28.4476 115.652 28.2856C115.418 28.1056 115.094 28.0156 114.68 28.0156C114.266 28.0156 113.924 28.1056 113.654 28.2856C113.384 28.4476 113.168 28.6726 113.006 28.9606C112.844 29.2306 112.727 29.5366 112.655 29.8786C112.601 30.2206 112.574 30.5626 112.574 30.9046V38.5996H108.308V30.5806C108.308 30.3466 108.281 30.0856 108.227 29.7976C108.191 29.4916 108.11 29.2036 107.984 28.9336C107.876 28.6636 107.696 28.4476 107.444 28.2856C107.21 28.1056 106.868 28.0156 106.418 28.0156C105.806 28.0156 105.347 28.1866 105.041 28.5286C104.753 28.8706 104.564 29.2756 104.474 29.7436C104.402 30.2116 104.366 30.6436 104.366 31.0396V38.5996H100.073ZM129.997 38.8156C128.521 38.8156 127.243 38.5186 126.163 37.9246C125.101 37.3306 124.282 36.4936 123.706 35.4136C123.13 34.3156 122.842 33.0286 122.842 31.5526C122.842 30.0766 123.139 28.7806 123.733 27.6646C124.327 26.5486 125.155 25.6756 126.217 25.0456C127.297 24.4156 128.566 24.1006 130.024 24.1006C131.086 24.1006 132.022 24.2716 132.832 24.6136C133.66 24.9556 134.362 25.4416 134.938 26.0716C135.532 26.7016 135.973 27.4486 136.261 28.3126C136.567 29.1766 136.72 30.1216 136.72 31.1476C136.702 31.4176 136.684 31.6876 136.666 31.9576C136.648 32.2096 136.603 32.4706 136.531 32.7406H127.081C127.135 33.1906 127.27 33.6046 127.486 33.9826C127.702 34.3606 128.008 34.6576 128.404 34.8736C128.8 35.0896 129.304 35.1976 129.916 35.1976C130.348 35.1976 130.735 35.1526 131.077 35.0626C131.437 34.9546 131.734 34.8106 131.968 34.6306C132.202 34.4326 132.355 34.2166 132.427 33.9826H136.639C136.405 35.1166 135.955 36.0436 135.289 36.7636C134.623 37.4656 133.831 37.9876 132.913 38.3296C131.995 38.6536 131.023 38.8156 129.997 38.8156ZM127.162 29.8516H132.643C132.643 29.4736 132.544 29.1046 132.346 28.7446C132.166 28.3846 131.878 28.0966 131.482 27.8806C131.086 27.6466 130.573 27.5296 129.943 27.5296C129.331 27.5296 128.818 27.6466 128.404 27.8806C127.99 28.1146 127.684 28.4116 127.486 28.7716C127.288 29.1316 127.18 29.4916 127.162 29.8516ZM145.419 38.7616C143.925 38.7616 142.683 38.4556 141.693 37.8436C140.721 37.2136 139.992 36.3496 139.506 35.2516C139.038 34.1536 138.804 32.9116 138.804 31.5256C138.804 30.1756 139.047 28.9516 139.533 27.8536C140.037 26.7376 140.793 25.8556 141.801 25.2076C142.827 24.5416 144.123 24.2086 145.689 24.2086C146.661 24.2086 147.525 24.3706 148.281 24.6946C149.055 25.0186 149.694 25.4956 150.198 26.1256C150.702 26.7376 151.053 27.5116 151.251 28.4476H148.902C148.632 27.6556 148.2 27.0976 147.606 26.7736C147.03 26.4316 146.346 26.2606 145.554 26.2606C144.474 26.2606 143.61 26.5126 142.962 27.0166C142.314 27.5206 141.837 28.1776 141.531 28.9876C141.243 29.7796 141.099 30.6256 141.099 31.5256C141.099 32.4616 141.252 33.3256 141.558 34.1176C141.864 34.9096 142.341 35.5486 142.989 36.0346C143.637 36.5026 144.474 36.7366 145.5 36.7366C146.256 36.7366 146.967 36.5746 147.633 36.2506C148.317 35.9266 148.767 35.3506 148.983 34.5226H151.359C151.179 35.4946 150.792 36.2956 150.198 36.9256C149.622 37.5556 148.911 38.0236 148.065 38.3296C147.237 38.6176 146.355 38.7616 145.419 38.7616ZM158.831 38.7616C158.183 38.7616 157.553 38.6806 156.941 38.5186C156.347 38.3386 155.807 38.0776 155.321 37.7356C154.853 37.3756 154.475 36.9346 154.187 36.4126C153.917 35.8726 153.782 35.2516 153.782 34.5496C153.782 33.7396 153.926 33.0556 154.214 32.4976C154.52 31.9396 154.925 31.4986 155.429 31.1746C155.933 30.8506 156.518 30.6166 157.184 30.4726C157.85 30.3286 158.543 30.2566 159.263 30.2566H163.448C163.448 29.4466 163.331 28.7446 163.097 28.1506C162.881 27.5566 162.521 27.0976 162.017 26.7736C161.513 26.4316 160.847 26.2606 160.019 26.2606C159.515 26.2606 159.047 26.3146 158.615 26.4226C158.183 26.5306 157.814 26.7016 157.508 26.9356C157.202 27.1696 156.977 27.4846 156.833 27.8806H154.376C154.502 27.2326 154.745 26.6836 155.105 26.2336C155.483 25.7656 155.933 25.3876 156.455 25.0996C156.995 24.7936 157.571 24.5686 158.183 24.4246C158.795 24.2806 159.407 24.2086 160.019 24.2086C162.071 24.2086 163.529 24.8116 164.393 26.0176C165.257 27.2236 165.689 28.8526 165.689 30.9046V38.5996H163.772L163.637 36.7906C163.241 37.3306 162.764 37.7446 162.206 38.0326C161.648 38.3206 161.072 38.5096 160.478 38.5996C159.902 38.7076 159.353 38.7616 158.831 38.7616ZM159.047 36.7366C159.947 36.7366 160.721 36.5926 161.369 36.3046C162.035 35.9986 162.548 35.5576 162.908 34.9816C163.268 34.4056 163.448 33.7036 163.448 32.8756V32.1736H160.937C160.343 32.1736 159.758 32.1826 159.182 32.2006C158.606 32.2186 158.084 32.2906 157.616 32.4166C157.148 32.5426 156.77 32.7586 156.482 33.0646C156.212 33.3706 156.077 33.8116 156.077 34.3876C156.077 34.9276 156.212 35.3686 156.482 35.7106C156.77 36.0526 157.139 36.3136 157.589 36.4936C158.057 36.6556 158.543 36.7366 159.047 36.7366ZM169.245 38.5996V24.3706H171.459L171.567 26.5846C171.927 26.0266 172.341 25.5766 172.809 25.2346C173.295 24.8926 173.826 24.6406 174.402 24.4786C174.996 24.2986 175.635 24.2086 176.319 24.2086C176.445 24.2086 176.562 24.2086 176.67 24.2086C176.796 24.2086 176.922 24.2086 177.048 24.2086V26.3686H176.211C175.095 26.3686 174.186 26.6116 173.484 27.0976C172.8 27.5656 172.305 28.2046 171.999 29.0146C171.693 29.8066 171.54 30.6886 171.54 31.6606V38.5996H169.245ZM185.209 38.7616C183.697 38.7616 182.446 38.4556 181.456 37.8436C180.466 37.2136 179.728 36.3496 179.242 35.2516C178.756 34.1536 178.513 32.9026 178.513 31.4986C178.513 30.0766 178.765 28.8256 179.269 27.7456C179.791 26.6476 180.547 25.7836 181.537 25.1536C182.527 24.5236 183.742 24.2086 185.182 24.2086C186.298 24.2086 187.252 24.4246 188.044 24.8566C188.854 25.2706 189.52 25.8286 190.042 26.5306C190.564 27.2326 190.942 28.0066 191.176 28.8526C191.41 29.6806 191.509 30.5176 191.473 31.3636C191.455 31.5256 191.437 31.6876 191.419 31.8496C191.419 32.0116 191.41 32.1736 191.392 32.3356H180.835C180.907 33.1636 181.114 33.9106 181.456 34.5766C181.798 35.2426 182.284 35.7736 182.914 36.1696C183.544 36.5476 184.327 36.7366 185.263 36.7366C185.731 36.7366 186.199 36.6826 186.667 36.5746C187.153 36.4486 187.585 36.2416 187.963 35.9536C188.359 35.6656 188.638 35.2786 188.8 34.7926H191.149C190.933 35.7106 190.528 36.4666 189.934 37.0606C189.34 37.6366 188.629 38.0686 187.801 38.3566C186.973 38.6266 186.109 38.7616 185.209 38.7616ZM180.889 30.3376H189.124C189.106 29.5276 188.926 28.8166 188.584 28.2046C188.242 27.5926 187.774 27.1156 187.18 26.7736C186.604 26.4316 185.911 26.2606 185.101 26.2606C184.219 26.2606 183.472 26.4496 182.86 26.8276C182.266 27.2056 181.807 27.7006 181.483 28.3126C181.159 28.9246 180.961 29.5996 180.889 30.3376Z" fill="white"/>
</svg>
