<svg width="24" height="24" viewBox="0 0 24 24" fill="none" xmlns="http://www.w3.org/2000/svg">
<g clip-path="url(#clip0_92_1678)">
<path fill-rule="evenodd" clip-rule="evenodd" d="M15.8595 23.9999C15.8174 23.9999 15.7752 23.9859 15.7189 23.9859C14.7066 23.9437 13.9755 23.4235 13.5678 22.4674C13.2163 21.6238 13.1741 20.5693 13.1741 19.8523C13.1601 17.7996 12.5555 16.6748 12.0072 16.6748C11.4448 16.6748 10.8402 17.7996 10.8402 19.8523C10.8261 20.5693 10.784 21.6238 10.4325 22.4674C10.0247 23.4235 9.29363 23.9437 8.28133 23.9859C8.22509 23.9859 8.18291 23.9999 8.14073 23.9999C7.49398 23.9999 6.94565 23.775 6.52386 23.3391C5.62404 22.4252 5.51156 20.8084 5.53968 19.9226C5.55374 18.7837 5.4975 15.9577 4.4852 14.369C3.1214 12.2319 3.20576 9.89798 3.21982 9.71521C3.21982 7.52189 4.44302 6.10185 6.32702 6.10185C6.95971 6.10185 7.63458 6.25651 8.30945 6.57988C8.57659 6.70642 8.84372 6.8189 9.11086 6.91732C9.1671 6.94544 9.22333 6.98761 9.23739 7.04385C9.26551 7.10009 9.26551 7.17039 9.25145 7.22663C9.0968 7.59218 9.0265 7.9718 9.0265 8.36547C9.0265 10.0105 10.3622 11.3461 11.9931 11.3461C13.6381 11.3461 14.9738 10.0105 14.9738 8.36547C14.9738 7.9718 14.9035 7.59218 14.7488 7.22663C14.7207 7.17039 14.7207 7.10009 14.7488 7.04385C14.7769 6.98761 14.8191 6.94544 14.8894 6.91732C15.1566 6.8189 15.4237 6.70642 15.6908 6.57988C16.4079 6.24245 17.0968 6.07373 17.7154 6.07373C18.545 6.07373 19.262 6.38305 19.7822 6.9595C20.5414 7.7609 20.8789 9.04034 20.7664 10.5447C20.668 11.5289 20.3868 13.0052 19.5151 14.369C18.5028 15.9577 18.4465 18.7837 18.4606 19.9226C18.4606 22.5518 17.5467 23.9999 15.8595 23.9999Z" fill="white"/>
<path fill-rule="evenodd" clip-rule="evenodd" d="M11.9935 4.9068C10.0954 4.9068 8.54883 3.36023 8.54883 1.46216C8.54883 1.01225 8.63319 0.562335 8.81596 0.140542C8.85814 0.0280639 8.99874 -0.0281751 9.11122 0.0140042C10.0813 0.379558 11.0515 0.562335 12.0075 0.562335C12.9495 0.562335 13.9197 0.379558 14.8898 0.0140042C15.0023 -0.0281751 15.1429 0.0280639 15.185 0.154602C15.3537 0.562335 15.4381 1.01225 15.4381 1.46216C15.4381 3.36023 13.9056 4.9068 11.9935 4.9068Z" fill="white"/>
<path fill-rule="evenodd" clip-rule="evenodd" d="M11.9935 8.16871C11.867 8.16871 11.7686 8.05623 11.7686 7.92969V4.68189C11.7686 4.54129 11.867 4.44287 11.9935 4.44287C12.1341 4.44287 12.2325 4.54129 12.2325 4.68189V7.92969C12.2325 8.05623 12.1341 8.16871 11.9935 8.16871Z" fill="white"/>
<path fill-rule="evenodd" clip-rule="evenodd" d="M11.9934 8.16854C11.9372 8.16854 11.881 8.14042 11.8388 8.09824L10.4891 6.74851C10.4047 6.66415 10.4047 6.50949 10.4891 6.42513C10.5875 6.32671 10.7281 6.32671 10.8265 6.42513L11.9934 7.59209L13.1745 6.42513C13.2729 6.32671 13.4135 6.32671 13.5119 6.42513C13.5963 6.50949 13.5963 6.66415 13.5119 6.74851L12.1622 8.09824C12.12 8.14042 12.0637 8.16854 11.9934 8.16854Z" fill="white"/>
</g>
<defs>
<clipPath id="clip0_92_1678">
<rect width="24" height="24" fill="white"/>
</clipPath>
</defs>
</svg>
