<svg width="24" height="24" viewBox="0 0 24 24" fill="none" xmlns="http://www.w3.org/2000/svg">
<g clip-path="url(#clip0_135_933)">
<path d="M23.3816 17.7086L20.3988 14.7251C19.603 13.9293 18.2125 13.9279 17.4154 14.7251L16.918 15.2225L22.8844 21.1886L23.3816 20.6914C24.2075 19.8655 24.2047 18.5303 23.3816 17.7086Z" fill="white"/>
<path d="M15.896 16.1889C15.2684 16.6752 14.373 16.6558 13.7994 16.081L7.90179 10.1792C7.32696 9.60442 7.3076 8.70835 7.79384 8.08225L1.84114 2.12988C-0.71968 5.11488 -0.619555 9.61267 2.20677 12.439L11.5397 21.776C14.2519 24.4881 18.6945 24.8478 21.849 22.1415L15.896 16.1889Z" fill="white"/>
<path d="M9.25757 3.58084L6.27478 0.597392C5.47894 -0.198451 4.08849 -0.19981 3.29133 0.597392L2.79395 1.09478L8.76037 7.06088L9.25757 6.56363C10.0834 5.73779 10.0807 4.4026 9.25757 3.58084Z" fill="white"/>
</g>
<defs>
<clipPath id="clip0_135_933">
<rect width="24" height="24" fill="white"/>
</clipPath>
</defs>
</svg>
