<svg width="48" height="48" viewBox="0 0 48 48" fill="none" xmlns="http://www.w3.org/2000/svg">
<path fill-rule="evenodd" clip-rule="evenodd" d="M17.8625 18.911L17.8596 18.9243C14.9374 19.0771 13.4551 12.7564 17.0098 14.0771C17.5892 11.503 18.2324 9.69036 18.9397 8.63857C23.0975 13.7744 27.0273 16.4167 30.7295 16.5657C30.8626 15.7933 30.9522 14.9641 30.9912 14.0771C34.5458 12.7564 33.0635 19.0771 30.1414 18.9243L30.1391 18.9114C27.6235 26.2598 20.3798 26.2583 17.8625 18.911ZM24.0005 47.4285C17.4647 47.4285 11.8566 45.8352 10.6559 43.636L11.3434 35.4579C11.3787 35.0285 11.0593 34.6516 10.6297 34.6163C10.2001 34.581 9.82325 34.9002 9.78772 35.3299L9.07559 43.8023L9.14937 43.8039C7.31609 43.7779 5.55941 42.9194 4.41406 41.4186C5.20869 37.1661 5.88341 32.3135 8.84094 29.5052C10.5045 27.9255 13.1962 27.161 15.7265 26.5684V32.1512C14.807 32.2114 13.976 32.6119 13.3589 33.2278L13.3573 33.2294L13.3557 33.2311C12.6859 33.9019 12.2712 34.8257 12.2712 35.8408V38.3767C12.2712 38.8082 12.6207 39.1577 13.0519 39.1577C13.4832 39.1577 13.8328 38.8081 13.8328 38.3767V35.8408C13.8328 35.251 14.0715 34.7172 14.4569 34.332L14.4599 34.3292C14.8452 33.944 15.379 33.7049 15.9688 33.7049H17.0461C17.6357 33.7049 18.1697 33.944 18.5548 34.3292V34.332C18.9419 34.7192 19.182 35.2534 19.182 35.8408V38.3135C19.182 38.7446 19.5317 39.0946 19.9629 39.0946C20.394 39.0946 20.7438 38.7446 20.7438 38.3135V35.8408C20.7438 34.8222 20.3286 33.8974 19.6591 33.2279L19.6574 33.2295C19.0402 32.6127 18.2084 32.2115 17.2882 32.1513V26.2115C17.7072 26.1154 18.1137 26.0209 18.5015 25.9251L24.0005 41.4115V47.4285ZM29.4993 25.9249C29.8872 26.0214 30.2938 26.116 30.7125 26.2114V32.6097C30.5265 32.6991 30.3581 32.819 30.2135 32.9635L30.2103 32.9668C29.8823 33.2953 29.6789 33.748 29.6789 34.2468C29.6789 34.7456 29.8821 35.1984 30.2103 35.5269L30.2135 35.5295C30.5417 35.8576 30.9947 36.0611 31.4934 36.0611C31.9924 36.0611 32.4452 35.8581 32.7736 35.5295L32.7766 35.5269C33.1049 35.1984 33.3084 34.7456 33.3084 34.2468C33.3084 33.7455 33.1049 33.292 32.7766 32.9635H32.7734C32.6289 32.819 32.4601 32.6991 32.2741 32.6097V26.5684C34.8045 27.161 37.4949 27.926 39.1602 29.5052C42.1175 32.3135 42.7923 37.1661 43.5868 41.4186C42.4573 42.8989 40.7335 43.7539 38.9278 43.8024L38.2156 35.3299C38.1803 34.9003 37.8034 34.5811 37.3738 34.6164C36.9442 34.6517 36.6246 35.0285 36.6601 35.458L37.3476 43.6366L37.349 43.6369L37.3451 43.6361C36.2415 45.6576 31.4124 47.1673 25.562 47.398V41.1422L24.1264 37.099L29.4993 25.9249ZM31.5877 24.8034C35.0941 23.1453 37.0618 20.4218 36.5601 16.5859C35.8064 10.0645 31.0881 0.565011 24.0005 0.571292C16.9129 0.565011 12.1945 10.0645 11.4409 16.5859C10.9365 20.4388 12.9982 23.1285 16.564 24.768L17.2883 24.5984V24.6087C17.5685 24.544 17.8485 24.4776 18.1277 24.4084L18.5743 24.2985L18.6599 24.1895C18.7377 24.0916 18.7838 23.8477 18.8109 23.5987C20.1702 25.0357 21.9606 25.9853 24.003 25.9849C26.0222 25.9845 27.8253 25.0467 29.1909 23.6011C29.218 23.8513 29.2643 24.0951 29.3417 24.1909L29.4282 24.2977L29.8769 24.4096C30.1546 24.4788 30.4336 24.5448 30.7126 24.6092V24.5984L31.5877 24.8034Z" fill="#1E84B5"/>
</svg>
