<svg width="25" height="25" viewBox="0 0 25 25" fill="none" xmlns="http://www.w3.org/2000/svg">
<g clip-path="url(#clip0_133_530)">
<path d="M12.333 6.125C10.7819 6.125 9.52051 7.38636 9.52051 8.9375C9.52051 10.496 10.7796 11.75 12.333 11.75C13.9142 11.75 15.1455 10.4724 15.1455 8.9375C15.1455 7.38636 13.8841 6.125 12.333 6.125Z" fill="white"/>
<path d="M12.333 0.5C7.68029 0.5 3.89551 4.28478 3.89551 8.9375C3.89551 10.5092 4.33084 12.0432 5.15415 13.3739L11.8524 24.1673C12.1301 24.6159 12.785 24.609 13.054 24.1577L19.5813 13.2599C20.3585 11.9574 20.7705 10.4625 20.7705 8.9375C20.7705 4.28478 16.9857 0.5 12.333 0.5ZM12.333 13.1656C9.97309 13.1656 8.10488 11.2447 8.10488 8.9375C8.10488 6.61114 10.0066 4.70938 12.333 4.70938C14.6594 4.70938 16.5611 6.61114 16.5611 8.9375C16.5611 11.2244 14.7181 13.1656 12.333 13.1656Z" fill="white"/>
</g>
<defs>
<clipPath id="clip0_133_530">
<rect width="24" height="24" fill="white" transform="translate(0.333008 0.5)"/>
</clipPath>
</defs>
</svg>
