<svg width="24" height="24" viewBox="0 0 24 24" fill="none" xmlns="http://www.w3.org/2000/svg">
<path d="M22.1809 7.84998H19.6999C19.11 7.84998 18.63 7.37036 18.63 6.78048V4.29948C18.63 4.12023 18.4898 3.97998 18.3105 3.97998H15.8442C15.6679 3.97998 15.5243 4.12323 15.5243 4.29948V6.78048C15.5243 7.37036 15.0447 7.84998 14.4548 7.84998H11.9738C11.7975 7.84998 11.6543 7.99323 11.6543 8.16948V10.6362C11.6543 10.8155 11.7945 10.9557 11.9738 10.9557H14.4548C15.0443 10.9557 15.5243 11.4354 15.5243 12.0252V14.5062C15.5243 14.6754 15.6555 14.8145 15.8228 14.8224C15.834 14.8227 15.8457 14.8239 15.8569 14.8257H18.3105C18.4898 14.8257 18.63 14.6851 18.63 14.5062V12.0252C18.63 11.4354 19.1097 10.9557 19.6999 10.9557H22.1809C22.3602 10.9557 22.5004 10.8155 22.5004 10.6362V8.16948C22.5004 7.99323 22.3572 7.84998 22.1809 7.84998Z" fill="white"/>
<path d="M4.82447 18.2892C4.8421 18.4913 4.85972 18.6964 4.87922 18.9068C5.11322 21.4276 5.34385 22.0069 6.11297 22.0069C6.29972 21.8974 6.5566 20.8557 6.72647 20.1664C7.19335 18.2719 7.83272 15.6777 9.89035 15.6777C11.948 15.6777 12.5247 18.2794 12.9395 20.1796C13.088 20.8613 13.313 21.8918 13.5162 22.0137C14.2175 22.0069 14.6588 21.5131 14.9007 18.9068C14.921 18.6912 14.9393 18.4812 14.957 18.2742C15.0406 17.3168 15.1197 16.4071 15.3496 15.4542C15.3016 15.4294 15.2562 15.4002 15.2131 15.3687C15.2018 15.3604 15.1917 15.3511 15.1805 15.3424C15.1448 15.3143 15.1111 15.2839 15.0792 15.2513C15.0672 15.2389 15.0552 15.2266 15.0436 15.2134C15.0102 15.1759 14.9795 15.1362 14.9517 15.0938C14.9472 15.0867 14.9416 15.0803 14.9371 15.0732C14.906 15.0237 14.8801 14.9716 14.8572 14.9172C14.8512 14.9026 14.8463 14.8872 14.8407 14.8718C14.8253 14.8294 14.8126 14.7859 14.8025 14.7413C14.7987 14.7241 14.7946 14.7072 14.7912 14.6896C14.7807 14.6296 14.7736 14.5684 14.7736 14.5054V12.0244C14.7736 11.8482 14.6303 11.7049 14.4541 11.7049H11.9731C11.3836 11.7049 10.9036 11.2253 10.9036 10.6354V8.16868C10.9036 7.5788 11.3832 7.09918 11.9731 7.09918H14.4541C14.6303 7.09918 14.7736 6.95593 14.7736 6.77968V4.29868C14.7736 3.7088 15.2532 3.22918 15.8435 3.22918H17.1702C16.8845 2.89093 16.5511 2.63293 16.1735 2.4593C14.3813 1.6283 13.241 2.0648 12.0335 2.52605C11.3618 2.78293 10.667 3.04843 9.88997 3.04843C9.11297 3.04843 8.4181 2.78293 7.74647 2.52605C6.53822 2.0648 5.39822 1.62868 3.60722 2.45855C2.52647 2.95768 2.01685 4.03955 1.77947 4.8593C1.16822 6.9698 1.59235 9.92893 2.76572 11.7413C4.48735 14.4012 4.64335 16.2023 4.8241 18.2881L4.82447 18.2892ZM6.54235 3.20968C6.61247 3.0143 6.82697 2.91343 7.0216 2.98318C7.17797 3.03905 7.3381 3.10018 7.50272 3.16318C7.69622 3.23743 7.7926 3.45418 7.71835 3.64768C7.66135 3.79655 7.51885 3.88843 7.3681 3.88843C7.32347 3.88843 7.2781 3.88055 7.23385 3.8633C7.0741 3.80218 6.91997 3.7433 6.76885 3.68893C6.57347 3.6188 6.47222 3.4043 6.54235 3.2093V3.20968ZM2.5276 9.50443C2.10235 7.98493 2.06785 6.32068 2.43497 5.05205C2.6326 4.36768 3.0466 3.46918 3.89372 3.07693C4.37597 2.8538 4.8211 2.7263 5.25385 2.6873C5.46235 2.66968 5.64197 2.82118 5.66072 3.02743C5.6791 3.23368 5.52722 3.41593 5.3206 3.4343C4.97522 3.46543 4.61147 3.5708 4.20872 3.75718C3.61847 4.03055 3.31022 4.72543 3.15572 5.2598C2.8306 6.38293 2.8666 7.93168 3.24985 9.30155C3.30572 9.50105 3.18947 9.70768 2.98997 9.76355C2.95622 9.77293 2.9221 9.7778 2.88835 9.7778C2.72447 9.7778 2.57372 9.66943 2.5276 9.50368V9.50443Z" fill="white"/>
</svg>
