<svg width="24" height="24" viewBox="0 0 24 24" fill="none" xmlns="http://www.w3.org/2000/svg">
<g clip-path="url(#clip0_118_891)">
<path d="M12 5.625C13.5533 5.625 14.8125 4.3658 14.8125 2.8125C14.8125 1.2592 13.5533 0 12 0C10.4467 0 9.1875 1.2592 9.1875 2.8125C9.1875 4.3658 10.4467 5.625 12 5.625Z" fill="white"/>
<path d="M8.48438 11.9531H15.5156C15.9039 11.9531 16.2188 11.6383 16.2188 11.25V9.14062C16.2188 7.8818 15.6644 6.75019 14.7871 5.97656C13.1934 7.38211 10.8087 7.38398 9.21286 5.97656C8.33564 6.75019 7.78125 7.8818 7.78125 9.14062V11.25C7.78125 11.6383 8.09606 11.9531 8.48438 11.9531Z" fill="white"/>
<path d="M10.6034 16.8905L8.37197 14.6827C7.36139 13.6806 5.80378 13.5657 4.66781 14.3361C4.425 14.5008 4.39406 14.8471 4.60148 15.0546L7.39969 17.8528C7.64433 18.0974 7.63116 18.4979 7.371 18.7259C7.13316 18.9344 6.77419 18.9218 6.55153 18.6972L3.5625 15.6815V8.78906C3.5625 7.99945 2.92242 7.35938 2.13281 7.35938C1.3432 7.35938 0.703125 7.99945 0.703125 8.78906V15.55C0.703125 16.4278 1.05483 17.2689 1.67958 17.8855L5.21592 21.3753V23.2969C5.21592 23.6852 5.53073 24 5.91905 24H10.5938C10.9821 24 11.2969 23.6852 11.2969 23.2969V18.5547C11.2969 17.9297 11.0472 17.3306 10.6034 16.8905Z" fill="white"/>
<path d="M13.3966 16.8905L15.628 14.6827C16.6386 13.6806 18.1962 13.5657 19.3322 14.3361C19.575 14.5008 19.6059 14.8471 19.3985 15.0546L16.6003 17.8528C16.3557 18.0974 16.3688 18.4979 16.629 18.7259C16.8668 18.9344 17.2258 18.9218 17.4485 18.6972L20.4375 15.6815V8.78906C20.4375 7.99945 21.0776 7.35938 21.8672 7.35938C22.6568 7.35938 23.2969 7.99945 23.2969 8.78906V15.55C23.2969 16.4278 22.9452 17.2689 22.3204 17.8855L18.7841 21.3753V23.2969C18.7841 23.6852 18.4693 24 18.081 24H13.4062C13.0179 24 12.7031 23.6852 12.7031 23.2969V18.5547C12.7031 17.9297 12.9528 17.3306 13.3966 16.8905Z" fill="white"/>
</g>
<defs>
<clipPath id="clip0_118_891">
<rect width="24" height="24" fill="white"/>
</clipPath>
</defs>
</svg>
