<svg width="24" height="24" viewBox="0 0 24 24" fill="none" xmlns="http://www.w3.org/2000/svg">
<path d="M8.2723 13.7325H6.8998C6.1573 13.7325 5.5498 14.34 5.5498 15.0825V20.7525C5.5498 21.5025 6.1573 22.1025 6.8998 22.1025H8.2723V13.7325Z" fill="white"/>
<path d="M18.375 16.1926L17.13 20.6776C16.8975 21.5176 16.14 22.1026 15.2625 22.1026H9.39746V13.7326L11.8725 10.2301C12.135 9.86257 12.5625 9.63757 13.02 9.63757C13.815 9.63757 14.4225 10.2901 14.4225 11.0401C14.4225 11.1676 14.4075 11.2951 14.37 11.4226L13.7175 13.7326H16.5075C17.79 13.7326 18.72 14.9551 18.375 16.1926Z" fill="white"/>
<path d="M4.56153 5.0993L5.12478 6.24005C5.17803 6.3473 5.28003 6.4223 5.39928 6.43955L6.65854 6.62255C6.95704 6.66605 7.07628 7.0328 6.86028 7.24355L5.94903 8.13155C5.86353 8.21555 5.82378 8.33555 5.84403 8.45405L6.05929 9.70805C6.11029 10.0058 5.79828 10.2323 5.53053 10.0921L4.40403 9.5003C4.29828 9.4448 4.17153 9.4448 4.06503 9.5003L2.93853 10.0921C2.67153 10.2323 2.35878 10.0058 2.40978 9.70805L2.62503 8.45405C2.64528 8.33555 2.60628 8.21555 2.52003 8.13155L1.61028 7.24355C1.39428 7.0328 1.51353 6.66605 1.81203 6.62255L3.07128 6.43955C3.18978 6.4223 3.29253 6.3473 3.34578 6.24005L3.90903 5.0993C4.04253 4.82855 4.42803 4.82855 4.56153 5.0993Z" fill="white"/>
<path d="M12.3262 2.0993L12.8894 3.24005C12.9427 3.3473 13.0447 3.4223 13.1639 3.43955L14.4232 3.62255C14.7217 3.66605 14.8409 4.0328 14.6249 4.24355L13.7137 5.13155C13.6282 5.21555 13.5884 5.33555 13.6087 5.45405L13.8239 6.70805C13.8749 7.0058 13.5629 7.2323 13.2952 7.09205L12.1687 6.5003C12.0629 6.4448 11.9362 6.4448 11.8297 6.5003L10.7032 7.09205C10.4362 7.2323 10.1234 7.0058 10.1744 6.70805L10.3897 5.45405C10.4099 5.33555 10.3709 5.21555 10.2847 5.13155L9.37493 4.24355C9.15893 4.0328 9.27818 3.66605 9.57668 3.62255L10.8359 3.43955C10.9544 3.4223 11.0572 3.34805 11.1104 3.24005L11.6737 2.0993C11.8072 1.82855 12.1927 1.82855 12.3262 2.0993Z" fill="white"/>
<path d="M20.0914 5.0993L20.6546 6.24005C20.7079 6.3473 20.8099 6.4223 20.9291 6.43955L22.1884 6.62255C22.4869 6.66605 22.6061 7.0328 22.3901 7.24355L21.4789 8.13155C21.3934 8.21555 21.3536 8.33555 21.3739 8.45405L21.5891 9.70805C21.6401 10.0058 21.3281 10.2323 21.0604 10.0921L19.9339 9.5003C19.8281 9.4448 19.7014 9.4448 19.5949 9.5003L18.4684 10.0921C18.2014 10.2323 17.8886 10.0058 17.9396 9.70805L18.1549 8.45405C18.1751 8.33555 18.1361 8.21555 18.0499 8.13155L17.1386 7.24355C16.9226 7.0328 17.0419 6.66605 17.3404 6.62255L18.5996 6.43955C18.7181 6.4223 18.8209 6.34805 18.8741 6.24005L19.4374 5.0993C19.5724 4.82855 19.9579 4.82855 20.0914 5.0993Z" fill="white"/>
</svg>
