<svg width="48" height="48" viewBox="0 0 48 48" fill="none" xmlns="http://www.w3.org/2000/svg">
<g clip-path="url(#clip0_135_1257)">
<path d="M36.5165 8.19581C36.5165 7.06969 36.077 6.00956 35.2805 5.21306L31.3035 1.236C30.518 0.450469 29.4031 0 28.2934 0H28.0518V8.4375H36.5166L36.5165 8.19581Z" fill="#1E84B5"/>
<path d="M25.6816 29.0191C25.9508 28.202 26.4204 27.4412 27.0329 26.8246L36.5543 17.3415V11.25H26.6731C25.8958 11.25 25.3125 10.621 25.3125 9.84375V0H4.21875C1.89244 0 0 1.89244 0 4.21875V43.7812C0 46.1076 1.89244 48 4.21875 48H32.2981C34.6244 48 36.5543 46.1076 36.5543 43.7812V33.2858L35.009 34.7937C34.3828 35.4144 33.6495 35.8662 32.8227 36.1423L28.3513 37.6351L27.6701 37.6722C26.544 37.6722 25.4783 37.1242 24.8165 36.2069C24.16 35.2937 23.9815 34.1099 24.3385 33.0401L25.6816 29.0191ZM7.03125 25.3125H21.0481C21.8254 25.3125 22.4543 25.9415 22.4543 26.7188C22.4543 27.496 21.8254 28.125 21.0481 28.125H7.03125C6.25397 28.125 5.625 27.496 5.625 26.7188C5.625 25.9415 6.25397 25.3125 7.03125 25.3125ZM5.625 21.0938C5.625 20.3165 6.25397 19.6875 7.03125 19.6875H21.0481C21.8254 19.6875 22.4543 20.3165 22.4543 21.0938C22.4543 21.871 21.8254 22.5 21.0481 22.5H7.03125C6.25397 22.5 5.625 21.871 5.625 21.0938ZM5.625 32.3438C5.625 31.5665 6.25397 30.9375 7.03125 30.9375H21.0481C21.8254 30.9375 22.4543 31.5665 22.4543 32.3438C22.4543 33.121 21.8254 33.75 21.0481 33.75H7.03125C6.25397 33.75 5.625 33.121 5.625 32.3438ZM26.6731 39.375C27.4504 39.375 28.0793 40.004 28.0793 40.7812C28.0793 41.5585 27.4505 42.1875 26.6731 42.1875H18.2356C17.4583 42.1875 16.8293 41.5585 16.8293 40.7812C16.8293 40.004 17.4583 39.375 18.2356 39.375H26.6731ZM7.03125 16.875C6.25397 16.875 5.625 16.246 5.625 15.4688C5.625 14.6915 6.25397 14.0625 7.03125 14.0625H26.6731C27.4504 14.0625 28.0793 14.6915 28.0793 15.4688C28.0793 16.246 27.4504 16.875 26.6731 16.875H7.03125Z" fill="#1E84B5"/>
<path d="M28.2295 30.2632L27.0061 33.9336C26.8227 34.4834 27.3459 35.0065 27.8958 34.8228L31.564 33.5977L28.2295 30.2632Z" fill="#1E84B5"/>
<path d="M39.1511 18.6851L29.8896 27.9465L33.8839 31.9407C35.9771 29.8471 40.0501 25.7736 43.1449 22.6788L39.1511 18.6851Z" fill="#1E84B5"/>
<path d="M47.174 14.6515C46.6796 14.1544 45.9517 13.8701 45.1799 13.8701C44.4081 13.8701 43.6803 14.1544 43.1831 14.6529L41.1396 16.6964L45.1332 20.69C46.2519 19.5711 47.0252 18.7979 47.1769 18.6463C48.2753 17.5461 48.2752 15.7542 47.174 14.6515Z" fill="#1E84B5"/>
<path d="M47.1768 18.6464L47.1769 18.6462C47.1805 18.6427 47.1821 18.6411 47.185 18.6382C47.1821 18.6412 47.1805 18.6428 47.1768 18.6464Z" fill="#1E84B5"/>
<path d="M47.1846 18.6382C47.1891 18.6337 47.1943 18.6285 47.197 18.6257C47.1942 18.6285 47.1891 18.6337 47.1846 18.6382Z" fill="#1E84B5"/>
<path d="M47.1973 18.6258C47.2064 18.6167 47.2065 18.6165 47.1973 18.6258V18.6258Z" fill="#1E84B5"/>
</g>
<defs>
<clipPath id="clip0_135_1257">
<rect width="48" height="48" fill="white"/>
</clipPath>
</defs>
</svg>
