<svg width="24" height="24" viewBox="0 0 24 24" fill="none" xmlns="http://www.w3.org/2000/svg">
<path d="M17.4164 7.13527C16.2276 5.09527 13.4151 5.00902 11.5533 5.92214C11.3217 6.03615 11.0765 6.12027 10.8237 6.17246C10.7453 6.18642 10.6735 6.22495 10.6185 6.28248C10.5634 6.34001 10.5282 6.41355 10.5177 6.49245C10.5073 6.57136 10.5222 6.65155 10.5604 6.7214C10.5985 6.79126 10.6579 6.84716 10.73 6.88102C10.7564 6.89235 10.7836 6.9015 10.8115 6.90839C10.8806 6.91838 10.944 6.95224 10.9907 7.0041C11.0373 7.05596 11.0644 7.12254 11.0671 7.19227C11.0659 7.26608 11.0358 7.33646 10.9831 7.38824C10.9305 7.44001 10.8597 7.46903 10.7858 7.46902H10.7577C10.1746 7.41089 9.89971 7.02427 9.63271 6.64964C9.4415 6.34454 9.17477 6.09396 8.85834 5.92214C7.01802 4.96289 4.18209 5.09527 2.99334 7.13527C1.43521 9.81089 2.99334 13.7015 4.54021 16.4503C6.08709 19.199 5.54709 23.8996 7.74459 23.5303C9.34959 23.2584 8.48896 15.7621 10.2046 15.7621C11.9202 15.7621 11.0615 23.2584 12.6665 23.5303C14.864 23.8996 14.3258 19.1971 15.8708 16.4503C17.4158 13.7034 18.9764 9.81089 17.4164 7.13527ZM15.856 8.77702L15.397 9.02808C15.2229 9.12328 15.0797 9.26644 14.9845 9.44058L14.7335 9.89996C14.7219 9.92104 14.7049 9.93863 14.6843 9.95089C14.6636 9.96315 14.64 9.96961 14.616 9.96961C14.592 9.96961 14.5684 9.96315 14.5477 9.95089C14.527 9.93863 14.51 9.92104 14.4985 9.89996L14.2475 9.44058C14.1522 9.26647 14.0091 9.12331 13.835 9.02808L13.376 8.77702C13.3549 8.76549 13.3373 8.7485 13.325 8.72783C13.3128 8.70717 13.3063 8.68358 13.3063 8.65955C13.3063 8.63552 13.3128 8.61193 13.325 8.59126C13.3373 8.5706 13.3549 8.55361 13.376 8.54208L13.835 8.29102C14.0091 8.19579 14.1522 8.05263 14.2475 7.87852L14.4985 7.41952C14.51 7.39843 14.527 7.38084 14.5477 7.36858C14.5684 7.35633 14.592 7.34986 14.616 7.34986C14.64 7.34986 14.6636 7.35633 14.6843 7.36858C14.7049 7.38084 14.7219 7.39843 14.7335 7.41952L14.9845 7.87852C15.0797 8.05266 15.2229 8.19582 15.397 8.29102L15.856 8.54208C15.8771 8.55361 15.8947 8.5706 15.907 8.59126C15.9192 8.61193 15.9257 8.63552 15.9257 8.65955C15.9257 8.68358 15.9192 8.70717 15.907 8.72783C15.8947 8.7485 15.8771 8.76549 15.856 8.77702Z" fill="white"/>
<path d="M17.6229 0.522606L17.2655 1.17604C17.1299 1.42361 16.9262 1.62714 16.6785 1.76254L16.0248 2.11992C15.9949 2.13637 15.9698 2.16059 15.9524 2.19003C15.935 2.21947 15.9258 2.25305 15.9258 2.28726C15.9258 2.32147 15.935 2.35506 15.9524 2.3845C15.9698 2.41394 15.9949 2.43815 16.0248 2.45461L16.6785 2.81254C16.9262 2.94815 17.1299 3.15187 17.2655 3.39961L17.6229 4.05304C17.6393 4.08309 17.6635 4.10816 17.693 4.12563C17.7224 4.14309 17.756 4.15231 17.7903 4.15231C17.8245 4.15231 17.8581 4.14309 17.8875 4.12563C17.917 4.10816 17.9412 4.08309 17.9576 4.05304L18.315 3.39961C18.4505 3.15183 18.6543 2.9481 18.902 2.81254L19.5555 2.45517C19.5855 2.43876 19.6106 2.41456 19.6281 2.38511C19.6455 2.35567 19.6547 2.32206 19.6547 2.28783C19.6547 2.25359 19.6455 2.21998 19.6281 2.19054C19.6106 2.16109 19.5855 2.1369 19.5555 2.12048L18.902 1.76254C18.6542 1.62704 18.4505 1.4233 18.315 1.17548L17.9576 0.522606C17.9412 0.492562 17.917 0.46749 17.8875 0.450023C17.8581 0.432557 17.8245 0.42334 17.7903 0.42334C17.756 0.42334 17.7224 0.432557 17.693 0.450023C17.6635 0.46749 17.6393 0.492562 17.6229 0.522606Z" fill="white"/>
<path d="M20.7381 6.3035L20.487 6.7625C20.3918 6.93663 20.2487 7.07979 20.0745 7.175L19.6157 7.42493C19.5946 7.43644 19.577 7.45344 19.5647 7.47413C19.5524 7.49482 19.5459 7.51843 19.5459 7.5425C19.5459 7.56656 19.5524 7.59018 19.5647 7.61087C19.577 7.63155 19.5946 7.64855 19.6157 7.66006L20.0747 7.91112C20.2489 8.00628 20.3921 8.14945 20.4872 8.32362L20.7383 8.78262C20.7498 8.8037 20.7669 8.82129 20.7875 8.83354C20.8082 8.84579 20.8318 8.85225 20.8559 8.85225C20.8799 8.85225 20.9035 8.84579 20.9242 8.83354C20.9449 8.82129 20.9619 8.8037 20.9734 8.78262L21.2245 8.32493C21.3197 8.1508 21.4628 8.00764 21.637 7.91243L22.096 7.66137C22.1171 7.64986 22.1347 7.63287 22.147 7.61218C22.1593 7.59149 22.1658 7.56787 22.1658 7.54381C22.1658 7.51975 22.1593 7.49613 22.147 7.47544C22.1347 7.45475 22.1171 7.43776 22.096 7.42625L21.637 7.17481C21.4629 7.07954 21.3197 6.93639 21.2245 6.76231L20.9734 6.30331C20.9619 6.28214 20.9449 6.26447 20.9242 6.25217C20.9035 6.23986 20.8798 6.23338 20.8557 6.2334C20.8316 6.23342 20.808 6.23994 20.7873 6.25228C20.7666 6.26461 20.7496 6.28231 20.7381 6.3035Z" fill="white"/>
</svg>
