<svg width="48" height="48" viewBox="0 0 48 48" fill="none" xmlns="http://www.w3.org/2000/svg">
<g clip-path="url(#clip0_135_1894)">
<path d="M37.6875 39.9375C36.1169 39.9375 34.7696 40.9084 34.2121 42.2812H30.9375V45.0938H34.2121C34.7696 46.4666 36.1169 47.4375 37.6875 47.4375C39.7552 47.4375 41.4375 45.7552 41.4375 43.6875C41.4375 41.6198 39.7552 39.9375 37.6875 39.9375Z" fill="white"/>
<path d="M44.25 31.9688C43.6336 31.9688 43.0521 32.1191 42.5385 32.3838L39.0565 29.4821C38.8038 29.2716 38.4852 29.1562 38.1562 29.1562H30.9375V31.9688H37.6471L40.7001 34.5129C40.5711 34.8916 40.5 35.2969 40.5 35.7188C40.5 37.7865 42.1823 39.4688 44.25 39.4688C46.3177 39.4688 48 37.7865 48 35.7188C48 33.651 46.3177 31.9688 44.25 31.9688Z" fill="white"/>
<path d="M44.25 20.25C42.6794 20.25 41.3321 21.2209 40.7746 22.5938H30.9375V25.4062H40.7746C41.3321 26.7791 42.6794 27.75 44.25 27.75C46.3177 27.75 48 26.0677 48 24C48 21.9323 46.3177 20.25 44.25 20.25Z" fill="white"/>
<path d="M39.0565 18.5178L42.5385 15.6161C43.0521 15.8809 43.6336 16.0312 44.25 16.0312C46.3177 16.0312 48 14.349 48 12.2812C48 10.2135 46.3177 8.53125 44.25 8.53125C42.1823 8.53125 40.5 10.2135 40.5 12.2812C40.5 12.7031 40.5711 13.1084 40.7001 13.4871L37.6471 16.0312H30.9375V18.8438H38.1562C38.4852 18.8438 38.8038 18.7284 39.0565 18.5178Z" fill="white"/>
<path d="M37.6875 8.0625C39.7552 8.0625 41.4375 6.38025 41.4375 4.3125C41.4375 2.24475 39.7552 0.5625 37.6875 0.5625C36.1169 0.5625 34.7696 1.53338 34.2121 2.90625H30.9375V5.71875H34.2121C34.7696 7.09163 36.1169 8.0625 37.6875 8.0625Z" fill="white"/>
<path d="M14.0625 24C14.0625 29.4278 18.4784 33.8438 23.9062 33.8438C25.4152 33.8438 26.8456 33.502 28.125 32.8927V15.1073C26.8456 14.498 25.4152 14.1562 23.9062 14.1562C18.4784 14.1562 14.0625 18.5722 14.0625 24Z" fill="white"/>
<path d="M26.7188 0.09375H21.0938C20.3171 0.09375 19.6875 0.723375 19.6875 1.5V3.33047C17.0487 3.86803 14.5235 4.91419 12.2741 6.40162L10.9794 5.10703C10.4303 4.55784 9.53991 4.55784 8.99072 5.10703L5.01328 9.08447C4.46409 9.63356 4.46409 10.524 5.01328 11.0732L6.30787 12.3679C4.82044 14.6172 3.77428 17.1425 3.23672 19.7812H1.40625C0.629625 19.7812 0 20.4109 0 21.1875V26.8125C0 27.5891 0.629625 28.2188 1.40625 28.2188H3.23672C3.77428 30.8575 4.82044 33.3828 6.30787 35.6322L5.01319 36.9269C4.74947 37.1906 4.60134 37.5483 4.60134 37.9212C4.60134 38.2942 4.74947 38.6517 5.01319 38.9154L8.99072 42.893C9.53991 43.4422 10.4303 43.4422 10.9794 42.893L12.2741 41.5984C14.5235 43.0858 17.0487 44.1319 19.6875 44.6695V46.5C19.6875 47.2766 20.3171 47.9062 21.0938 47.9062H26.7188C27.4954 47.9062 28.125 47.2766 28.125 46.5V35.9323C26.8048 36.4005 25.385 36.6562 23.9062 36.6562C16.9276 36.6562 11.25 30.9787 11.25 24C11.25 17.0213 16.9276 11.3438 23.9062 11.3438C25.385 11.3438 26.8048 11.5995 28.125 12.0677V1.5C28.125 0.723375 27.4954 0.09375 26.7188 0.09375Z" fill="white"/>
</g>
<defs>
<clipPath id="clip0_135_1894">
<rect width="48" height="48" fill="white"/>
</clipPath>
</defs>
</svg>
