<svg width="24" height="24" viewBox="0 0 24 24" fill="none" xmlns="http://www.w3.org/2000/svg">
<path d="M19.1951 7.13419C18.4664 5.88375 17.1277 5.36832 15.7717 5.36625C15.7679 5.51309 15.7245 5.65617 15.6462 5.78044C15.6078 5.84437 15.5455 5.89039 15.4731 5.9084C15.4007 5.9264 15.3241 5.91491 15.2602 5.87644C15.1963 5.83798 15.1502 5.77569 15.1322 5.70329C15.1142 5.63089 15.1257 5.5543 15.1642 5.49038C15.183 5.46099 15.1968 5.42868 15.2051 5.39475C14.5545 5.45905 13.9203 5.6372 13.3314 5.92107C13.0997 6.03508 12.8545 6.11919 12.6016 6.17138C12.5233 6.18539 12.4515 6.22394 12.3966 6.28145C12.3416 6.33896 12.3064 6.41246 12.2959 6.49131C12.2855 6.57017 12.3004 6.6503 12.3385 6.72013C12.3766 6.78995 12.4359 6.84585 12.5079 6.87975C12.5343 6.8912 12.5616 6.90042 12.5896 6.90732C12.6587 6.91734 12.722 6.95121 12.7687 7.00306C12.8154 7.05492 12.8424 7.12148 12.8452 7.19119C12.8438 7.26492 12.8135 7.33517 12.761 7.38689C12.7084 7.43862 12.6377 7.46771 12.5639 7.46794H12.5358C11.9527 7.40982 11.6776 7.023 11.4108 6.64857C11.2196 6.34342 10.9529 6.09283 10.6364 5.92107C10.0504 5.62186 9.4132 5.43586 8.75824 5.37282C8.75766 5.55593 8.81883 5.73388 8.93187 5.87794C8.9542 5.90737 8.97052 5.9409 8.97989 5.97663C8.98926 6.01236 8.99151 6.04959 8.98649 6.08619C8.98148 6.12279 8.96931 6.15804 8.95067 6.18993C8.93203 6.22182 8.90729 6.24973 8.87787 6.27207C8.84844 6.2944 8.81491 6.31072 8.77918 6.32009C8.74345 6.32946 8.70622 6.33171 8.66962 6.32669C8.63302 6.32168 8.59777 6.3095 8.56588 6.29087C8.53399 6.27223 8.50607 6.24749 8.48374 6.21807C8.29191 5.97044 8.18985 5.66502 8.19424 5.35182C8.19424 5.34994 8.19424 5.34807 8.19424 5.34619C6.83993 5.35369 5.49743 5.88694 4.77068 7.13419C3.21255 9.80982 4.77068 13.7004 6.31755 16.4492C7.86443 19.1979 7.32443 23.8986 9.52193 23.5292C11.1269 23.2573 10.2663 15.7611 11.9819 15.7611C13.6976 15.7611 12.8388 23.2573 14.4438 23.5292C16.6413 23.8986 16.1032 19.1961 17.6482 16.4492C19.1932 13.7023 20.7551 9.80982 19.1951 7.13419ZM9.56637 7.24332C9.42565 7.06707 9.26231 6.91016 9.08055 6.77663C9.05171 6.75353 9.02769 6.72498 9.00988 6.6926C8.99207 6.66023 8.98081 6.62466 8.97675 6.58793C8.97268 6.5512 8.97589 6.51403 8.98619 6.47854C8.99649 6.44306 9.01368 6.40994 9.03677 6.3811C9.05987 6.35225 9.08842 6.32824 9.1208 6.31043C9.15317 6.29261 9.18874 6.28136 9.22547 6.27729C9.2622 6.27322 9.29937 6.27643 9.33486 6.28673C9.37035 6.29703 9.40346 6.31422 9.4323 6.33732C9.65309 6.50133 9.85086 6.69424 10.0203 6.91088C10.0644 6.97108 10.0827 7.04631 10.0713 7.12003C10.0599 7.19375 10.0197 7.25991 9.95946 7.30397C9.89926 7.34803 9.82403 7.36637 9.75031 7.35496C9.67659 7.34355 9.61043 7.30351 9.56637 7.24332ZM10.7784 8.46094C10.7411 8.52554 10.6796 8.57267 10.6076 8.59198C10.5355 8.61128 10.4588 8.60117 10.3942 8.56388C10.2472 8.49056 10.1172 8.38718 10.0127 8.26043C9.90826 8.13369 9.83156 7.98641 9.78762 7.82813C9.77954 7.79208 9.77864 7.7548 9.78498 7.7184C9.79131 7.68201 9.80475 7.64722 9.82453 7.61602C9.84431 7.58482 9.87004 7.55782 9.90025 7.53656C9.93047 7.5153 9.96457 7.50021 10.0006 7.49213C10.0367 7.48405 10.074 7.48316 10.1103 7.48949C10.1467 7.49582 10.1815 7.50926 10.2127 7.52904C10.2439 7.54882 10.2709 7.57455 10.2922 7.60476C10.3134 7.63498 10.3285 7.66908 10.3366 7.70513C10.396 7.86847 10.5172 8.00194 10.6741 8.07675C10.7062 8.09511 10.7344 8.11962 10.757 8.14887C10.7796 8.17812 10.7962 8.21155 10.8059 8.24723C10.8156 8.28292 10.8181 8.32016 10.8134 8.35683C10.8087 8.3935 10.7968 8.42888 10.7784 8.46094ZM11.9769 8.97113H11.9581C11.6929 8.95473 11.4295 8.91641 11.1706 8.85657C11.1345 8.84826 11.1004 8.8329 11.0702 8.81136C11.0401 8.78982 11.0145 8.76254 10.9949 8.73107C10.9753 8.69961 10.9621 8.66458 10.9561 8.62801C10.9501 8.59144 10.9514 8.55404 10.9599 8.51797C10.9684 8.4819 10.9839 8.44786 11.0056 8.41782C11.0273 8.38777 11.0548 8.36231 11.0863 8.3429C11.1179 8.32348 11.153 8.3105 11.1896 8.3047C11.2262 8.29889 11.2636 8.30038 11.2996 8.30907C11.5282 8.36186 11.7608 8.39554 11.9951 8.40975C12.0696 8.41224 12.1402 8.44426 12.1912 8.49876C12.2422 8.55326 12.2694 8.62579 12.2669 8.70038C12.2644 8.77497 12.2324 8.84552 12.1779 8.89651C12.1234 8.94749 12.0509 8.97474 11.9763 8.97225L11.9769 8.97113ZM13.5401 8.83125C13.2811 8.90073 13.0162 8.94562 12.7488 8.96532C12.7411 8.96532 12.7334 8.96532 12.7259 8.96532C12.6534 8.96516 12.5837 8.93697 12.5314 8.88663C12.4792 8.8363 12.4484 8.76773 12.4455 8.69523C12.4426 8.62274 12.4679 8.55194 12.516 8.49762C12.5641 8.4433 12.6313 8.40967 12.7036 8.40375C12.9355 8.38695 13.1653 8.34828 13.3899 8.28825C13.4257 8.27776 13.4632 8.27448 13.5002 8.27862C13.5373 8.28276 13.5732 8.29423 13.6058 8.31237C13.6384 8.3305 13.667 8.35494 13.6901 8.38425C13.7131 8.41357 13.7301 8.44718 13.7401 8.48313C13.75 8.51907 13.7527 8.55664 13.748 8.59364C13.7433 8.63064 13.7313 8.66633 13.7127 8.69864C13.694 8.73095 13.6692 8.75923 13.6395 8.78184C13.6098 8.80444 13.576 8.82092 13.5399 8.83032L13.5401 8.83125ZM14.3178 8.45625C14.2602 8.50039 14.1878 8.52057 14.1157 8.51259C14.0436 8.5046 13.9774 8.46906 13.9309 8.41339C13.8844 8.35773 13.8611 8.28624 13.8661 8.21386C13.871 8.14149 13.9038 8.07382 13.9574 8.025C14.0026 7.99552 14.04 7.95559 14.0665 7.90859C14.0929 7.86159 14.1077 7.80891 14.1095 7.755C14.1084 7.71357 14.108 7.68169 14.108 7.65C14.108 7.62113 14.108 7.59375 14.1093 7.56507C14.1095 7.52787 14.1172 7.4911 14.132 7.45698C14.1468 7.42286 14.1684 7.39211 14.1955 7.36658C14.2225 7.34105 14.2545 7.32129 14.2894 7.30848C14.3243 7.29567 14.3615 7.29009 14.3986 7.29207C14.4355 7.29313 14.4719 7.30147 14.5056 7.31658C14.5393 7.3317 14.5697 7.35331 14.595 7.38018C14.6204 7.40704 14.6402 7.43864 14.6533 7.47316C14.6665 7.50768 14.6727 7.54446 14.6716 7.58138C14.6709 7.60388 14.6705 7.62675 14.6705 7.65C14.6705 7.67588 14.6705 7.70213 14.6718 7.72894V7.755C14.6693 7.89096 14.6362 8.02461 14.5749 8.14599C14.5136 8.26737 14.4257 8.37336 14.3178 8.45607V8.45625ZM15.1331 6.38588C14.9879 6.54968 14.8724 6.73756 14.7918 6.94107C14.779 6.9761 14.7593 7.00822 14.7339 7.03558C14.7086 7.06293 14.678 7.08496 14.644 7.10039C14.6101 7.11582 14.5734 7.12433 14.5361 7.12544C14.4988 7.12655 14.4617 7.12023 14.4268 7.10685C14.392 7.09347 14.3602 7.07329 14.3332 7.0475C14.3063 7.0217 14.2847 6.9908 14.2699 6.9566C14.255 6.92239 14.247 6.88556 14.2465 6.84826C14.246 6.81096 14.2529 6.77393 14.2668 6.73932C14.3706 6.47709 14.5185 6.23453 14.7041 6.02213C14.7278 5.99342 14.757 5.96972 14.7899 5.95238C14.8229 5.93504 14.8589 5.92442 14.896 5.92113C14.9331 5.91784 14.9705 5.92194 15.006 5.93321C15.0415 5.94448 15.0744 5.96268 15.1028 5.98676C15.1312 6.01084 15.1545 6.04032 15.1714 6.07349C15.1883 6.10666 15.1985 6.14286 15.2013 6.17999C15.2041 6.21712 15.1995 6.25443 15.1878 6.28978C15.1761 6.32512 15.1575 6.35779 15.1331 6.38588Z" fill="white"/>
<path d="M23.8275 1.0625C23.8275 0.987908 23.7979 0.916371 23.7452 0.863626C23.6924 0.810882 23.6209 0.78125 23.5463 0.78125H18.1255C17.8532 0.781819 17.5885 0.871252 17.3717 1.03596C17.1549 1.20067 16.9977 1.43165 16.9242 1.69381L12.9507 0.9605C12.9072 0.916029 12.8553 0.880659 12.798 0.856451C12.7407 0.832243 12.6791 0.819682 12.6169 0.8195H11.4027C11.336 0.819437 11.2701 0.833497 11.2093 0.860751C11.1485 0.888005 11.0942 0.927836 11.0499 0.977618C11.0056 1.0274 10.9724 1.086 10.9524 1.14956C10.9324 1.21313 10.9261 1.2802 10.9339 1.34638L11.1334 3.03856C11.1478 3.16031 11.2063 3.27255 11.298 3.35401C11.3896 3.43546 11.5079 3.48047 11.6305 3.4805H11.7192V4.91019C11.7192 4.98478 11.7488 5.05632 11.8015 5.10906C11.8543 5.16181 11.9258 5.19144 12.0004 5.19144C12.075 5.19144 12.1465 5.16181 12.1993 5.10906C12.252 5.05632 12.2817 4.98478 12.2817 4.91019V3.4805H12.3885C12.5111 3.48051 12.6295 3.43552 12.7211 3.35406C12.8127 3.27259 12.8713 3.16033 12.8856 3.03856L13.0609 1.55263L16.8994 2.261C16.8994 2.26644 16.9005 2.27169 16.9013 2.27694C16.9674 2.56516 17.1303 2.82202 17.3628 3.00475C17.5953 3.18748 17.8834 3.28504 18.1791 3.28119H23.5463C23.6209 3.28119 23.6924 3.25156 23.7452 3.19881C23.7979 3.14607 23.8275 3.07453 23.8275 2.99994V1.06306V1.0625ZM19.8754 2.71869H18.1255C18.0237 2.71861 17.9233 2.69598 17.8313 2.65244C17.7394 2.6089 17.6582 2.54553 17.5937 2.46688C17.5291 2.38822 17.4828 2.29625 17.458 2.19756C17.4333 2.09887 17.4307 1.99593 17.4505 1.89613C17.4861 1.73712 17.5755 1.5953 17.7036 1.49464C17.8317 1.39398 17.9907 1.34068 18.1536 1.34375H19.8754V2.71869Z" fill="white"/>
</svg>
