<svg width="24" height="24" viewBox="0 0 24 24" fill="none" xmlns="http://www.w3.org/2000/svg">
<path d="M1.45312 9.52551V21.8906C1.45312 22.2153 1.53295 22.5193 1.66453 22.7943L8.19323 16.2656C5.69137 13.7638 4.05422 12.1266 1.45312 9.52551Z" fill="white"/>
<path d="M15.8066 16.2656L22.3353 22.7943C22.4669 22.5193 22.5468 22.2153 22.5468 21.8906V9.52551C20.0506 12.0217 18.3359 13.7364 15.8066 16.2656Z" fill="white"/>
<path d="M12 7.125C11.6127 7.125 11.2969 7.44019 11.2969 7.82812C11.2969 8.21606 11.6127 8.53125 12 8.53125C12.4869 8.53125 12.6161 8.19736 12.6933 7.7797C12.6671 7.41553 12.3701 7.125 12 7.125Z" fill="white"/>
<path d="M14.5217 16.9688H9.47902L2.65918 23.7886C2.9342 23.9202 3.23818 24 3.56288 24H20.4379C20.7626 24 21.0666 23.9202 21.3416 23.7886L14.5217 16.9688Z" fill="white"/>
<path d="M2.15625 8.24011L4.26562 10.3495V6.13074L2.15625 8.24011Z" fill="white"/>
<path d="M19.7344 6.13074V10.3495L21.8438 8.24011L19.7344 6.13074Z" fill="white"/>
<path d="M17.4272 0H6.44091C6.01617 0 5.67188 0.344297 5.67188 0.769031V11.7557L9.47864 15.5625H14.5214L18.3281 11.7557V0.900891C18.3281 0.403359 17.9248 0 17.4272 0ZM13.4057 9.3893C13.0318 9.72637 12.5419 9.9375 12 9.9375C10.8368 9.9375 9.89062 8.99128 9.89062 7.82812C9.89062 6.66497 10.8368 5.71875 12 5.71875C13.1632 5.71875 14.1094 6.66497 14.1094 7.82812C14.1094 8.75756 15.5156 8.75756 15.5156 7.82812C15.5156 5.8897 13.9391 4.3125 12 4.3125C10.0609 4.3125 8.48438 5.8897 8.48438 7.82812C8.48438 9.03113 9.09136 10.1387 10.109 10.791C11.1527 11.4584 12.4449 11.5216 13.6575 10.9647C14.4958 10.5753 15.0922 11.853 14.2453 12.2419C12.6336 12.9833 10.8435 12.9309 9.35091 11.9748C7.9282 11.0629 7.07812 9.51314 7.07812 7.82812C7.07812 5.11448 9.28636 2.90625 12 2.90625C14.7136 2.90625 16.9219 5.11448 16.9219 7.82812C16.9219 9.63562 14.7728 10.6236 13.4057 9.3893Z" fill="white"/>
</svg>
