<svg width="24" height="24" viewBox="0 0 24 24" fill="none" xmlns="http://www.w3.org/2000/svg">
<g clip-path="url(#clip0_135_1032)">
<path d="M11.9531 0C5.36203 0 0 5.36203 0 11.9531C0 18.5442 5.36203 24 11.9531 24C18.5442 24 24 18.5442 24 11.9531C24 5.36203 18.5442 0 11.9531 0ZM11.9531 21.1875C6.92634 21.1875 2.8125 17.0029 2.8125 11.9531C2.8125 6.92634 6.90338 2.8125 11.9531 2.8125C16.9799 2.8125 21.1875 6.90338 21.1875 11.9531C21.1875 16.9799 17.0029 21.1875 11.9531 21.1875Z" fill="white"/>
<path d="M17.4689 7.45905C16.8135 8.11444 15.8165 7.12275 16.4745 6.46468L16.9465 5.99269C15.7086 4.9606 14.2233 4.37405 12.7029 4.23647L12.7029 4.90223C12.7029 5.82726 11.2968 5.83952 11.2968 4.90223L11.2968 4.23647C9.77642 4.37402 8.22484 5.02689 6.98692 6.05898L7.45891 6.53097C8.1143 7.18636 7.12262 8.18341 6.46455 7.52534L5.99255 7.05335C4.96046 8.29127 4.37392 9.77659 4.23633 11.2969L4.90209 11.2969C5.84416 11.2969 5.813 12.7031 4.90209 12.7031L4.23633 12.7031C4.37389 14.2234 4.96046 15.7087 5.99255 16.9467L6.46455 16.4747C7.11993 15.8193 8.11699 16.811 7.45891 17.469L6.98692 17.941C8.22484 18.9731 9.77646 19.6259 11.2968 19.7635L11.2968 19.0978C11.2968 18.1733 12.7029 18.1657 12.7029 19.0978L12.7029 19.7635C14.2233 19.6259 15.7086 19.0394 16.9465 18.0073L16.4745 17.5353C15.8191 16.8799 16.8108 15.8829 17.4689 16.541L17.9409 17.0129C18.973 15.775 19.6258 14.2234 19.7634 12.7031L19.0976 12.7031C18.1732 12.7031 18.1656 11.2969 19.0976 11.2969L19.7634 11.2969C19.6258 9.77659 18.9729 8.22495 17.9409 6.98706L17.4689 7.45905ZM15.9773 12.6368L11.9999 12.6368C11.6115 12.6368 11.2968 12.3221 11.2968 11.9337L11.2968 7.95627C11.2968 7.56787 11.6115 7.25321 11.9999 7.25321C12.3883 7.25321 12.7029 7.56787 12.7029 7.95627L12.7029 11.2307L15.9773 11.2307C16.9194 11.2307 16.8882 12.6368 15.9773 12.6368Z" fill="white"/>
</g>
<defs>
<clipPath id="clip0_135_1032">
<rect width="24" height="24" fill="white"/>
</clipPath>
</defs>
</svg>
