<svg width="48" height="48" viewBox="0 0 48 48" fill="none" xmlns="http://www.w3.org/2000/svg">
<path d="M18 24.5H14C10.9511 24.5037 8.02823 25.7165 5.87236 27.8724C3.7165 30.0282 2.5037 32.9511 2.5 36C2.50106 37.4584 3.08086 38.8567 4.11208 39.8879C5.1433 40.9191 6.54163 41.4989 8 41.5H24C25.4584 41.4989 26.8567 40.9191 27.8879 39.8879C28.9191 38.8567 29.4989 37.4584 29.5 36C29.4963 32.9511 28.2835 30.0282 26.1276 27.8724C23.9718 25.7165 21.0489 24.5037 18 24.5Z" fill="white"/>
<path d="M16 23.5C21.2467 23.5 25.5 19.2467 25.5 14C25.5 8.75329 21.2467 4.5 16 4.5C10.7533 4.5 6.5 8.75329 6.5 14C6.5 19.2467 10.7533 23.5 16 23.5Z" fill="white"/>
<path d="M45.4997 32.0001C45.5002 32.7225 45.3583 33.4379 45.0821 34.1054C44.8059 34.773 44.4008 35.3795 43.8899 35.8903C43.3791 36.4011 42.7726 36.8063 42.1051 37.0825C41.4375 37.3587 40.7221 37.5006 39.9997 37.5001H31.3397C31.4444 37.0069 31.4981 36.5042 31.4997 36.0001C31.5011 33.8196 30.9721 31.6716 29.9581 29.7413C28.9442 27.8109 27.4758 26.1563 25.6797 24.9201C27.4117 23.3549 29.6652 22.492 31.9997 22.5001H35.9997C38.5186 22.5022 40.9337 23.5037 42.7149 25.2849C44.496 27.066 45.4976 29.4811 45.4997 32.0001Z" fill="white"/>
<path d="M41.4996 13.9999C41.4976 15.7267 40.9003 17.4001 39.8083 18.7378C38.7163 20.0756 37.1964 20.9959 35.5049 21.3435C33.8134 21.6912 32.0538 21.4451 30.5227 20.6465C28.9915 19.848 27.7826 18.5459 27.0996 16.9599C27.3653 15.9957 27.4999 15 27.4996 13.9999C27.4999 13.0063 27.3653 12.0173 27.0996 11.0599C27.7771 9.46942 28.9833 8.16185 30.5141 7.35842C32.0448 6.555 33.8061 6.30505 35.4999 6.65087C37.1937 6.99669 38.7161 7.91705 39.8094 9.25622C40.9027 10.5954 41.4998 12.2711 41.4996 13.9999Z" fill="white"/>
</svg>
