<svg width="24" height="24" viewBox="0 0 24 24" fill="none" xmlns="http://www.w3.org/2000/svg">
<path fill-rule="evenodd" clip-rule="evenodd" d="M8.93125 9.45552L8.9298 9.46213C7.4687 9.53854 6.72756 6.37822 8.50488 7.03855C8.79461 5.7515 9.11622 4.84518 9.46984 4.31929C11.5487 6.88719 13.5137 8.20836 15.3647 8.28285C15.4313 7.89665 15.4761 7.48204 15.4956 7.03855C17.2729 6.37822 16.5317 9.53854 15.0707 9.46213L15.0695 9.45571C13.8117 13.1299 10.1899 13.1292 8.93125 9.45552ZM12.0002 23.7142C8.73236 23.7142 5.9283 22.9176 5.32797 21.818L5.6717 17.729C5.68933 17.5143 5.52963 17.3258 5.31484 17.3082C5.10006 17.2905 4.91163 17.4501 4.89386 17.6649L4.5378 21.9012L4.57469 21.902C3.65805 21.8889 2.7797 21.4597 2.20703 20.7093C2.60434 18.5831 2.9417 16.1568 4.42047 14.7526C5.25227 13.9627 6.59809 13.5805 7.86325 13.2842V16.0756C7.4035 16.1057 6.988 16.3059 6.67947 16.6139L6.67867 16.6147L6.67783 16.6155C6.34295 16.9509 6.13558 17.4128 6.13558 17.9204V19.1884C6.13558 19.4041 6.31033 19.5788 6.52595 19.5788C6.74158 19.5788 6.91638 19.404 6.91638 19.1884V17.9204C6.91638 17.6255 7.03577 17.3586 7.22847 17.166L7.22997 17.1646C7.42258 16.972 7.68948 16.8524 7.98438 16.8524H8.52306C8.81786 16.8524 9.08486 16.972 9.27738 17.1646V17.166C9.47097 17.3596 9.59102 17.6267 9.59102 17.9204V19.1568C9.59102 19.3723 9.76586 19.5473 9.98144 19.5473C10.197 19.5473 10.3719 19.3723 10.3719 19.1568V17.9204C10.3719 17.4111 10.1643 16.9487 9.82956 16.6139L9.82872 16.6147C9.52009 16.3063 9.10422 16.1058 8.64409 16.0756V13.1058C8.85358 13.0577 9.05683 13.0105 9.25075 12.9626L12.0002 20.7058V23.7142ZM14.7497 12.9625C14.9436 13.0107 15.1469 13.058 15.3563 13.1057V16.3048C15.2633 16.3496 15.179 16.4095 15.1068 16.4818L15.1052 16.4834C14.9411 16.6476 14.8395 16.874 14.8395 17.1234C14.8395 17.3728 14.941 17.5992 15.1052 17.7635L15.1068 17.7648C15.2709 17.9288 15.4974 18.0306 15.7467 18.0306C15.9962 18.0306 16.2226 17.9291 16.3868 17.7648L16.3883 17.7635C16.5525 17.5992 16.6542 17.3728 16.6542 17.1234C16.6542 16.8727 16.5525 16.646 16.3883 16.4818H16.3867C16.3144 16.4095 16.2301 16.3496 16.1371 16.3048V13.2842C17.4023 13.5805 18.7474 13.963 19.5801 14.7526C21.0588 16.1568 21.3962 18.5831 21.7934 20.7093C21.2287 21.4494 20.3667 21.877 19.4639 21.9012L19.1078 17.665C19.0901 17.4501 18.9017 17.2905 18.6869 17.3082C18.4721 17.3258 18.3123 17.5143 18.3301 17.729L18.6738 21.8183L18.6745 21.8185L18.6725 21.8181C18.1208 22.8288 15.7062 23.5836 12.781 23.699V20.5711L12.0632 18.5495L14.7497 12.9625ZM15.7938 12.4017C17.5471 11.5726 18.5309 10.2109 18.28 8.29297C17.9032 5.03226 15.544 0.282505 12.0002 0.285646C8.45645 0.282505 6.09723 5.03226 5.72045 8.29297C5.46827 10.2194 6.49909 11.5642 8.28198 12.384L8.64414 12.2992V12.3043C8.78425 12.272 8.92427 12.2388 9.06386 12.2042L9.28717 12.1492L9.32997 12.0948C9.36887 12.0458 9.39189 11.9239 9.40544 11.7994C10.0851 12.5179 10.9803 12.9927 12.0015 12.9925C13.0111 12.9922 13.9127 12.5233 14.5954 11.8005C14.609 11.9256 14.6321 12.0476 14.6709 12.0954L14.7141 12.1489L14.9385 12.2048C15.0773 12.2394 15.2168 12.2724 15.3563 12.3046V12.2992L15.7938 12.4017Z" fill="white"/>
</svg>
