<svg width="48" height="48" viewBox="0 0 48 48" fill="none" xmlns="http://www.w3.org/2000/svg">
<path d="M24 11.25C27.1066 11.25 29.625 8.7316 29.625 5.625C29.625 2.5184 27.1066 0 24 0C20.8934 0 18.375 2.5184 18.375 5.625C18.375 8.7316 20.8934 11.25 24 11.25Z" fill="#1E84B5"/>
<path d="M16.9688 23.9062H31.0312C31.8079 23.9062 32.4375 23.2766 32.4375 22.5V18.2812C32.4375 15.7636 31.3287 13.5004 29.5743 11.9531C26.3868 14.7642 21.6174 14.768 18.4257 11.9531C16.6713 13.5004 15.5625 15.7636 15.5625 18.2812V22.5C15.5625 23.2766 16.1921 23.9062 16.9688 23.9062Z" fill="#1E84B5"/>
<path d="M21.2068 33.7809L16.7439 29.3653C14.7228 27.3611 11.6076 27.1314 9.33563 28.6722C8.85 29.0016 8.78813 29.6943 9.20297 30.1091L14.7994 35.7055C15.2887 36.1948 15.2623 36.9957 14.742 37.4518C14.2663 37.8687 13.5484 37.8436 13.1031 37.3943L7.125 31.3629V17.5781C7.125 15.9989 5.84484 14.7188 4.26562 14.7188C2.68641 14.7188 1.40625 15.9989 1.40625 17.5781V31.1C1.40625 32.8555 2.10966 34.5379 3.35916 35.771L10.4318 42.7506V46.5938C10.4318 47.3704 11.0615 48 11.8381 48H21.1875C21.9641 48 22.5938 47.3704 22.5938 46.5938V37.1094C22.5938 35.8594 22.0944 34.6612 21.2068 33.7809Z" fill="#1E84B5"/>
<path d="M26.7932 33.7809L31.2561 29.3653C33.2772 27.3611 36.3924 27.1314 38.6644 28.6722C39.15 29.0016 39.2119 29.6943 38.797 30.1091L33.2006 35.7055C32.7113 36.1948 32.7377 36.9957 33.258 37.4518C33.7337 37.8687 34.4516 37.8436 34.8969 37.3943L40.875 31.3629V17.5781C40.875 15.9989 42.1552 14.7188 43.7344 14.7188C45.3136 14.7188 46.5938 15.9989 46.5938 17.5781V31.1C46.5938 32.8555 45.8903 34.5379 44.6408 35.771L37.5682 42.7506V46.5938C37.5682 47.3704 36.9385 48 36.1619 48H26.8125C26.0359 48 25.4062 47.3704 25.4062 46.5938V37.1094C25.4062 35.8594 25.9056 34.6612 26.7932 33.7809Z" fill="#1E84B5"/>
</svg>
