<svg width="52" height="48" viewBox="0 0 52 48" fill="none" xmlns="http://www.w3.org/2000/svg">
<path d="M13.3977 25.2471C13.3977 13.1635 27.1403 14.0087 27.6099 22.2731C27.7664 24.9653 23.6968 25.1844 23.5403 22.4923C23.2586 19.3618 17.4359 18.4853 17.4359 25.2471C17.4359 29.661 26.0447 43.9358 33.3073 43.9358C39.8813 43.9358 47.0813 25.2157 47.0813 17.2644C47.0813 10.7218 43.2309 4.08521 34.6847 4.08521C26.3577 4.08521 23.3212 14.8227 17.4986 14.8227C14.8064 14.8227 14.8064 10.7531 17.4986 10.7531C20.1907 10.7531 24.8551 0.015625 34.6847 0.015625C46.8309 0.015625 57.537 11.4731 46.2361 35.5149C31.9299 66.0368 13.3977 31.821 13.3977 25.2471Z" fill="white"/>
<path d="M0 17.2647C0 3.11506 13.1792 -2.8641 22.1323 1.2994C24.574 2.42636 22.8523 6.1203 20.4105 4.99333C13.9931 1.9881 4.03828 6.1829 4.03828 17.2647C4.03828 25.216 11.2383 43.9361 17.8123 43.9361C25.0749 43.9361 33.6836 29.6926 33.6836 25.2473C33.6836 18.4856 27.861 19.3308 27.5793 22.5239C27.5167 23.6508 26.5462 24.496 25.4193 24.4334C21.6001 24.2143 23.6662 16.1064 30.3967 16.1064C36.3445 16.1064 42.6054 24.3082 31.5549 38.8648C11.7079 65.098 0 27.1882 0 17.2647Z" fill="white"/>
</svg>
