<svg width="214" height="48" viewBox="0 0 214 48" fill="none" xmlns="http://www.w3.org/2000/svg">
<path d="M13.3975 25.2473C13.3975 13.1638 27.1401 14.009 27.6097 22.2734C27.7662 24.9656 23.6966 25.1847 23.5401 22.4925C23.2584 19.3621 17.4357 18.4856 17.4357 25.2473C17.4357 29.6613 26.0445 43.9361 33.3071 43.9361C39.8811 43.9361 47.0811 25.216 47.0811 17.2647C47.0811 10.7221 43.2307 4.0855 34.6845 4.0855C26.3575 4.0855 23.321 14.8229 17.4984 14.8229C14.8062 14.8229 14.8062 10.7534 17.4984 10.7534C20.1905 10.7534 24.8549 0.0159187 34.6845 0.0159187C46.8307 0.0159187 57.5368 11.4734 46.2359 35.5152C31.9297 66.0371 13.3975 31.8213 13.3975 25.2473Z" fill="#1E84B5"/>
<path d="M0 17.2647C0 3.11506 13.1792 -2.8641 22.1323 1.2994C24.574 2.42636 22.8523 6.1203 20.4105 4.99333C13.9931 1.9881 4.03828 6.1829 4.03828 17.2647C4.03828 25.216 11.2383 43.9361 17.8123 43.9361C25.0749 43.9361 33.6837 29.6926 33.6837 25.2473C33.6837 18.4856 27.861 19.3308 27.5793 22.5239C27.5167 23.6508 26.5462 24.496 25.4193 24.4334C21.6001 24.2143 23.6662 16.1064 30.3967 16.1064C36.3445 16.1064 42.6054 24.3082 31.5549 38.8648C11.7079 65.098 0 27.1882 0 17.2647Z" fill="#1E84B5"/>
<path d="M64.917 37V17.884H72.666C74.142 17.884 75.429 18.1 76.527 18.532C77.643 18.964 78.507 19.666 79.119 20.638C79.749 21.61 80.064 22.924 80.064 24.58C80.064 26.11 79.731 27.388 79.065 28.414C78.399 29.44 77.49 30.205 76.338 30.709C75.186 31.195 73.872 31.438 72.396 31.438H69.291V37H64.917ZM69.291 27.55H72.396C73.422 27.55 74.232 27.298 74.826 26.794C75.438 26.29 75.744 25.552 75.744 24.58C75.744 23.716 75.483 23.059 74.961 22.609C74.457 22.159 73.62 21.934 72.45 21.934H69.291V27.55ZM82.2276 37V22.771H86.0076L86.3046 24.283C86.6646 23.761 87.0606 23.374 87.4926 23.122C87.9426 22.87 88.3926 22.708 88.8426 22.636C89.3106 22.546 89.7606 22.501 90.1926 22.501C90.4626 22.501 90.7056 22.51 90.9216 22.528C91.1556 22.528 91.3086 22.537 91.3806 22.555V26.659H90.4896C89.7336 26.659 89.0496 26.776 88.4376 27.01C87.8436 27.244 87.3756 27.631 87.0336 28.171C86.6916 28.711 86.5206 29.467 86.5206 30.439V37H82.2276ZM93.0118 37V22.771H97.3048V37H93.0118ZM95.1718 21.583C94.3798 21.583 93.7408 21.349 93.2548 20.881C92.7868 20.413 92.5528 19.801 92.5528 19.045C92.5528 18.271 92.8048 17.641 93.3088 17.155C93.8128 16.669 94.4428 16.426 95.1988 16.426C95.9188 16.426 96.5308 16.66 97.0348 17.128C97.5388 17.596 97.7908 18.226 97.7908 19.018C97.7908 19.792 97.5478 20.413 97.0618 20.881C96.5758 21.349 95.9458 21.583 95.1718 21.583ZM100.052 37V22.771H103.859L104.237 24.31C104.633 23.788 105.056 23.401 105.506 23.149C105.974 22.879 106.424 22.708 106.856 22.636C107.306 22.564 107.684 22.528 107.99 22.528C108.782 22.528 109.511 22.672 110.177 22.96C110.843 23.248 111.383 23.77 111.797 24.526C112.193 23.986 112.625 23.581 113.093 23.311C113.561 23.023 114.038 22.825 114.524 22.717C115.01 22.591 115.496 22.528 115.982 22.528C117.116 22.528 118.025 22.762 118.709 23.23C119.393 23.68 119.897 24.328 120.221 25.174C120.545 26.002 120.707 26.965 120.707 28.063V37H116.441V29.008C116.441 28.756 116.423 28.477 116.387 28.171C116.351 27.865 116.27 27.586 116.144 27.334C116.036 27.064 115.865 26.848 115.631 26.686C115.397 26.506 115.073 26.416 114.659 26.416C114.245 26.416 113.903 26.506 113.633 26.686C113.363 26.848 113.147 27.073 112.985 27.361C112.823 27.631 112.706 27.937 112.634 28.279C112.58 28.621 112.553 28.963 112.553 29.305V37H108.287V28.981C108.287 28.747 108.26 28.486 108.206 28.198C108.17 27.892 108.089 27.604 107.963 27.334C107.855 27.064 107.675 26.848 107.423 26.686C107.189 26.506 106.847 26.416 106.397 26.416C105.785 26.416 105.326 26.587 105.02 26.929C104.732 27.271 104.543 27.676 104.453 28.144C104.381 28.612 104.345 29.044 104.345 29.44V37H100.052ZM129.975 37.216C128.499 37.216 127.221 36.919 126.141 36.325C125.079 35.731 124.26 34.894 123.684 33.814C123.108 32.716 122.82 31.429 122.82 29.953C122.82 28.477 123.117 27.181 123.711 26.065C124.305 24.949 125.133 24.076 126.195 23.446C127.275 22.816 128.544 22.501 130.002 22.501C131.064 22.501 132 22.672 132.81 23.014C133.638 23.356 134.34 23.842 134.916 24.472C135.51 25.102 135.951 25.849 136.239 26.713C136.545 27.577 136.698 28.522 136.698 29.548C136.68 29.818 136.662 30.088 136.644 30.358C136.626 30.61 136.581 30.871 136.509 31.141H127.059C127.113 31.591 127.248 32.005 127.464 32.383C127.68 32.761 127.986 33.058 128.382 33.274C128.778 33.49 129.282 33.598 129.894 33.598C130.326 33.598 130.713 33.553 131.055 33.463C131.415 33.355 131.712 33.211 131.946 33.031C132.18 32.833 132.333 32.617 132.405 32.383H136.617C136.383 33.517 135.933 34.444 135.267 35.164C134.601 35.866 133.809 36.388 132.891 36.73C131.973 37.054 131.001 37.216 129.975 37.216ZM127.14 28.252H132.621C132.621 27.874 132.522 27.505 132.324 27.145C132.144 26.785 131.856 26.497 131.46 26.281C131.064 26.047 130.551 25.93 129.921 25.93C129.309 25.93 128.796 26.047 128.382 26.281C127.968 26.515 127.662 26.812 127.464 27.172C127.266 27.532 127.158 27.892 127.14 28.252ZM145.398 37.162C143.904 37.162 142.662 36.856 141.672 36.244C140.7 35.614 139.971 34.75 139.485 33.652C139.017 32.554 138.783 31.312 138.783 29.926C138.783 28.576 139.026 27.352 139.512 26.254C140.016 25.138 140.772 24.256 141.78 23.608C142.806 22.942 144.102 22.609 145.668 22.609C146.64 22.609 147.504 22.771 148.26 23.095C149.034 23.419 149.673 23.896 150.177 24.526C150.681 25.138 151.032 25.912 151.23 26.848H148.881C148.611 26.056 148.179 25.498 147.585 25.174C147.009 24.832 146.325 24.661 145.533 24.661C144.453 24.661 143.589 24.913 142.941 25.417C142.293 25.921 141.816 26.578 141.51 27.388C141.222 28.18 141.078 29.026 141.078 29.926C141.078 30.862 141.231 31.726 141.537 32.518C141.843 33.31 142.32 33.949 142.968 34.435C143.616 34.903 144.453 35.137 145.479 35.137C146.235 35.137 146.946 34.975 147.612 34.651C148.296 34.327 148.746 33.751 148.962 32.923H151.338C151.158 33.895 150.771 34.696 150.177 35.326C149.601 35.956 148.89 36.424 148.044 36.73C147.216 37.018 146.334 37.162 145.398 37.162ZM158.81 37.162C158.162 37.162 157.532 37.081 156.92 36.919C156.326 36.739 155.786 36.478 155.3 36.136C154.832 35.776 154.454 35.335 154.166 34.813C153.896 34.273 153.761 33.652 153.761 32.95C153.761 32.14 153.905 31.456 154.193 30.898C154.499 30.34 154.904 29.899 155.408 29.575C155.912 29.251 156.497 29.017 157.163 28.873C157.829 28.729 158.522 28.657 159.242 28.657H163.427C163.427 27.847 163.31 27.145 163.076 26.551C162.86 25.957 162.5 25.498 161.996 25.174C161.492 24.832 160.826 24.661 159.998 24.661C159.494 24.661 159.026 24.715 158.594 24.823C158.162 24.931 157.793 25.102 157.487 25.336C157.181 25.57 156.956 25.885 156.812 26.281H154.355C154.481 25.633 154.724 25.084 155.084 24.634C155.462 24.166 155.912 23.788 156.434 23.5C156.974 23.194 157.55 22.969 158.162 22.825C158.774 22.681 159.386 22.609 159.998 22.609C162.05 22.609 163.508 23.212 164.372 24.418C165.236 25.624 165.668 27.253 165.668 29.305V37H163.751L163.616 35.191C163.22 35.731 162.743 36.145 162.185 36.433C161.627 36.721 161.051 36.91 160.457 37C159.881 37.108 159.332 37.162 158.81 37.162ZM159.026 35.137C159.926 35.137 160.7 34.993 161.348 34.705C162.014 34.399 162.527 33.958 162.887 33.382C163.247 32.806 163.427 32.104 163.427 31.276V30.574H160.916C160.322 30.574 159.737 30.583 159.161 30.601C158.585 30.619 158.063 30.691 157.595 30.817C157.127 30.943 156.749 31.159 156.461 31.465C156.191 31.771 156.056 32.212 156.056 32.788C156.056 33.328 156.191 33.769 156.461 34.111C156.749 34.453 157.118 34.714 157.568 34.894C158.036 35.056 158.522 35.137 159.026 35.137ZM169.223 37V22.771H171.437L171.545 24.985C171.905 24.427 172.319 23.977 172.787 23.635C173.273 23.293 173.804 23.041 174.38 22.879C174.974 22.699 175.613 22.609 176.297 22.609C176.423 22.609 176.54 22.609 176.648 22.609C176.774 22.609 176.9 22.609 177.026 22.609V24.769H176.189C175.073 24.769 174.164 25.012 173.462 25.498C172.778 25.966 172.283 26.605 171.977 27.415C171.671 28.207 171.518 29.089 171.518 30.061V37H169.223ZM185.188 37.162C183.676 37.162 182.425 36.856 181.435 36.244C180.445 35.614 179.707 34.75 179.221 33.652C178.735 32.554 178.492 31.303 178.492 29.899C178.492 28.477 178.744 27.226 179.248 26.146C179.77 25.048 180.526 24.184 181.516 23.554C182.506 22.924 183.721 22.609 185.161 22.609C186.277 22.609 187.231 22.825 188.023 23.257C188.833 23.671 189.499 24.229 190.021 24.931C190.543 25.633 190.921 26.407 191.155 27.253C191.389 28.081 191.488 28.918 191.452 29.764C191.434 29.926 191.416 30.088 191.398 30.25C191.398 30.412 191.389 30.574 191.371 30.736H180.814C180.886 31.564 181.093 32.311 181.435 32.977C181.777 33.643 182.263 34.174 182.893 34.57C183.523 34.948 184.306 35.137 185.242 35.137C185.71 35.137 186.178 35.083 186.646 34.975C187.132 34.849 187.564 34.642 187.942 34.354C188.338 34.066 188.617 33.679 188.779 33.193H191.128C190.912 34.111 190.507 34.867 189.913 35.461C189.319 36.037 188.608 36.469 187.78 36.757C186.952 37.027 186.088 37.162 185.188 37.162ZM180.868 28.738H189.103C189.085 27.928 188.905 27.217 188.563 26.605C188.221 25.993 187.753 25.516 187.159 25.174C186.583 24.832 185.89 24.661 185.08 24.661C184.198 24.661 183.451 24.85 182.839 25.228C182.245 25.606 181.786 26.101 181.462 26.713C181.138 27.325 180.94 28 180.868 28.738Z" fill="white"/>
</svg>
